# File created by Blade
# Date/Time:  Fri Jan 16 17:18:57 2015
#---------------------------------------------------------
:version 1.10
:name HOM
:units
  mass 1.0
  length 1.000000
  angle deg
:documentation
     Acclaim Skeleton File
:root
   axis xyz
   order TX TY TZ RX RY RZ
   position 0.000000 0.000000 0.000000
   orientation 0 0 0
:bonedata
   begin
      id 1
      name Spine_dum
      direction 0.000000 1.000000 0.000000
      length 7.170412
      axis 0.0 0.0 0.0 xyz
   end
   begin
      id 2
      name LeftUpLeg_dum
      direction 1.000000 0.000000 0.000000
      length 4.318350
      axis 0.0 0.0 0.0 xyz
   end
   begin
      id 3
      name RightUpLeg_dum
      direction -1.000000 0.000000 0.000000
      length 4.318350
      axis 0.0 0.0 0.0 xyz
   end
   begin
      id 4
      name Spine
      direction 0.000000 1.000000 0.000000
      length 0.000000
      axis 0.0 0.0 0.0 xyz
      dof rx ry rz
   end
   begin
      id 5
      name Spine_dum1
      direction 0.000000 1.000000 0.000000
      length 14.276153
      axis 0.0 0.0 0.0 xyz
   end
   begin
      id 6
      name Spine_dum2
      direction 0.000000 1.000000 0.000000
      length 10.718243
      axis 0.0 0.0 0.0 xyz
   end
   begin
      id 7
      name Spine_dum3
      direction 0.000000 1.000000 0.000000
      length 10.718243
      axis 0.0 0.0 0.0 xyz
   end
   begin
      id 8
      name Head
      direction 0.000000 1.000000 0.000000
      length 4.527550
      axis 0.0 0.0 0.0 xyz
      dof rx ry rz
   end
   begin
      id 9
      name LeftShoulder
      direction 1.000000 0.000000 0.000000
      length 7.058872
      axis 0.0 0.0 -90.0 xyz
      dof rx ry rz
   end
   begin
      id 10
      name LeftArm
      direction 1.000000 0.000000 0.000000
      length 10.955525
      axis 0.0 0.0 -90.0 xyz
      dof rx ry rz
   end
   begin
      id 11
      name LeftForeArm
      direction 1.000000 0.000000 0.000000
      length 8.193716
      axis 0.0 0.0 -90.0 xyz
      dof ry rz rx
   end
   begin
      id 12
      name LeftHand
      direction 0.000000 0.000000 0.000000
      length 0.000000
      axis 0.0 0.0 -90.0 xyz
      dof rx ry rz
   end
   begin
      id 13
      name LeftHand_dum1
      direction 0.000000 0.000000 0.000000
      length 0.000000
      axis 0.0 0.0 -90.0 xyz
   end
   begin
      id 14
      name LeftHand_dum2
      direction 1.000000 0.000000 0.000000
      length 3.937000
      axis 0.0 0.0 -90.0 xyz
   end
   begin
      id 15
      name LeftHandThumb1
      direction 0.000000 0.000000 1.000000
      length 3.937000
      axis 0.0 0.0 -90.0 xyz
      dof rx rz ry
   end
   begin
      id 16
      name RightShoulder
      direction -1.000000 0.000000 0.000000
      length 7.058872
      axis 0.0 0.0 90.0 xyz
      dof rx ry rz
   end
   begin
      id 17
      name RightArm
      direction -1.000000 0.000000 0.000000
      length 10.955525
      axis 0.0 0.0 90.0 xyz
      dof rx ry rz
   end
   begin
      id 18
      name RightForeArm
      direction -1.000000 0.000000 0.000000
      length 8.193716
      axis 0.0 0.0 90.0 xyz
      dof ry rz rx
   end
   begin
      id 19
      name RightHand
      direction 0.000000 0.000000 0.000000
      length 0.000000
      axis 0.0 0.0 90.0 xyz
      dof rx ry rz
   end
   begin
      id 20
      name RightHand_dum1
      direction 0.000000 0.000000 0.000000
      length 0.000000
      axis 0.0 0.0 90.0 xyz
   end
   begin
      id 21
      name RightHand_dum2
      direction -1.000000 0.000000 0.000000
      length 3.937000
      axis 0.0 0.0 90.0 xyz
   end
   begin
      id 22
      name RightHandThumb1
      direction 0.000000 0.000000 1.000000
      length 3.937000
      axis 0.0 0.0 90.0 xyz
      dof rx rz ry
   end
   begin
      id 23
      name LeftUpLeg
      direction 0.000000 -1.000000 0.000000
      length 17.323638
      axis 0.0 0.0 0.0 xyz
      dof rx ry rz
   end
   begin
      id 24
      name LeftLeg
      direction 0.000000 -1.000000 0.000000
      length 16.270368
      axis 0.0 0.0 0.0 xyz
      dof rx ry rz
   end
   begin
      id 25
      name LeftFoot
      direction 0.000000 -0.258819 0.965926
      length 4.922846
      axis 15.0 0.0 0.0 xyz
      dof rx ry rz
   end
   begin
      id 26
      name LeftToeBase
      direction 0.000000 0.000000 1.000000
      length 2.952750
      axis 0.0 0.0 0.0 xyz
      dof rx ry rz
   end
   begin
      id 27
      name RightUpLeg
      direction 0.000000 -1.000000 0.000000
      length 17.323638
      axis 0.0 0.0 0.0 xyz
      dof rx ry rz
   end
   begin
      id 28
      name RightLeg
      direction 0.000000 -1.000000 0.000000
      length 16.270368
      axis 0.0 0.0 0.0 xyz
      dof rx ry rz
   end
   begin
      id 29
      name RightFoot
      direction 0.000000 -0.258819 0.965926
      length 4.922846
      axis 15.0 0.0 0.0 xyz
      dof rx ry rz
   end
   begin
      id 30
      name RightToeBase
      direction 0.000000 0.000000 1.000000
      length 2.952750
      axis 0.0 0.0 0.0 xyz
      dof rx ry rz
   end
:hierarchy
   begin
      root Spine_dum LeftUpLeg_dum RightUpLeg_dum
      Spine_dum Spine
      LeftUpLeg_dum LeftUpLeg
      RightUpLeg_dum RightUpLeg
      Spine Spine_dum1 Spine_dum2 Spine_dum3
      Spine_dum1 Head
      Spine_dum2 LeftShoulder
      Spine_dum3 RightShoulder
      LeftShoulder LeftArm
      LeftArm LeftForeArm
      LeftForeArm LeftHand
      LeftHand LeftHand_dum1 LeftHand_dum2
      LeftHand_dum1 LeftHandThumb1
      RightShoulder RightArm
      RightArm RightForeArm
      RightForeArm RightHand
      RightHand RightHand_dum1 RightHand_dum2
      RightHand_dum1 RightHandThumb1
      LeftUpLeg LeftLeg
      LeftLeg LeftFoot
      LeftFoot LeftToeBase
      RightUpLeg RightLeg
      RightLeg RightFoot
      RightFoot RightToeBase
   end

# File created by Blade
# Date/Time:  Fri Jan 16 17:19:08 2015
# Frame Rate: 120.000 fps
#------------------------------------------------------
:FULLY-SPECIFIED
:DEGREES
2721
root -5.132990 35.164129 -9.106089 0.848927 -6.887381 -6.743575
Spine -5.270123 -1.903664 7.802004
Head 9.350226 -8.348128 -5.288753
LeftShoulder -19.942373 13.212002 -13.879068
LeftArm 19.030363 -9.603215 -73.725479
LeftForeArm 14.897277 -0.000000 9.767599
LeftHand 0.278479 -0.000000 -5.405680
LeftHandThumb1 -26.253704 0.000000 33.147579
RightShoulder -8.779531 10.423791 -8.191350
RightArm -41.193844 61.841206 11.041641
RightForeArm 40.584286 0.000000 63.220614
RightHand 14.323870 0.000000 -2.812122
RightHandThumb1 -24.326973 -0.000000 -32.862282
LeftUpLeg 11.328767 14.720352 6.978302
LeftLeg -9.754276 -0.000000 0.000000
LeftFoot -17.039332 29.341978 -8.029393
LeftToeBase 22.828983 -0.000000 -0.000000
RightUpLeg 7.238473 -3.763729 4.462765
RightLeg -4.937202 -0.000000 0.000000
RightFoot -4.688319 -27.246494 4.672066
RightToeBase 13.358547 -0.000000 -0.000000
2722
root -5.132047 35.164184 -9.105936 0.835162 -6.901510 -6.736794
Spine -5.220702 -1.850006 7.772998
Head 9.286820 -8.414826 -5.290558
LeftShoulder -19.942787 13.209303 -13.901104
LeftArm 19.057230 -9.611325 -73.729204
LeftForeArm 14.925323 -0.000000 9.797596
LeftHand 0.232884 0.000000 -5.451252
LeftHandThumb1 -26.253704 0.000000 33.147579
RightShoulder -8.684389 10.343848 -8.158122
RightArm -40.541646 61.514484 11.643332
RightForeArm 39.272721 -0.000000 62.670746
RightHand 13.935757 -0.000000 -2.791835
RightHandThumb1 -24.326973 -0.000000 -32.862282
LeftUpLeg 11.340431 14.716603 6.971476
LeftLeg -9.741561 -0.000000 0.000000
LeftFoot -17.054370 29.354578 -8.043431
LeftToeBase 22.833172 -0.000000 -0.000000
RightUpLeg 7.251800 -3.750479 4.454619
RightLeg -4.941958 -0.000000 0.000000
RightFoot -4.680861 -27.259784 4.634824
RightToeBase 13.398632 -0.000000 -0.000000
2723
root -5.131014 35.164350 -9.105758 0.824349 -6.914830 -6.734828
Spine -5.179430 -1.809943 7.750538
Head 9.228569 -8.452616 -5.280463
LeftShoulder -19.951519 13.213117 -13.922292
LeftArm 19.090205 -9.588685 -73.723253
LeftForeArm 14.932751 -0.000000 9.805370
LeftHand 0.191653 0.000000 -5.503559
LeftHandThumb1 -26.253704 0.000000 33.147579
RightShoulder -8.554328 10.274136 -8.128572
RightArm -39.992722 61.142421 12.159260
RightForeArm 37.907058 -0.000000 62.063151
RightHand 13.620359 0.000000 -2.595531
RightHandThumb1 -24.326973 -0.000000 -32.862282
LeftUpLeg 11.352350 14.728351 6.970375
LeftLeg -9.738671 -0.000000 0.000000
LeftFoot -17.049241 29.361012 -8.034881
LeftToeBase 22.854603 -0.000000 -0.000000
RightUpLeg 7.262352 -3.745704 4.448882
RightLeg -4.942485 -0.000000 0.000000
RightFoot -4.682917 -27.251413 4.656077
RightToeBase 13.375762 -0.000000 -0.000000
2724
root -5.130948 35.164341 -9.104997 0.807344 -6.928237 -6.736194
Spine -5.127353 -1.757334 7.722034
Head 9.168695 -8.503882 -5.258381
LeftShoulder -19.953548 13.236630 -13.934915
LeftArm 19.141774 -9.586348 -73.739353
LeftForeArm 14.970010 0.000000 9.815317
LeftHand 0.162614 -0.000000 -5.588170
LeftHandThumb1 -26.253704 0.000000 33.147579
RightShoulder -8.457723 10.235568 -8.094864
RightArm -39.400576 60.722325 12.701103
RightForeArm 36.577449 -0.000000 61.387389
RightHand 13.349264 -0.000000 -2.572316
RightHandThumb1 -24.326973 -0.000000 -32.862282
LeftUpLeg 11.368649 14.732324 6.975562
LeftLeg -9.724504 -0.000000 0.000000
LeftFoot -17.066335 29.360554 -8.046907
LeftToeBase 22.846402 -0.000000 -0.000000
RightUpLeg 7.289631 -3.713045 4.449241
RightLeg -4.962477 -0.000000 0.000000
RightFoot -4.673589 -27.253961 4.668703
RightToeBase 13.351943 -0.000000 -0.000000
2725
root -5.129949 35.164067 -9.105006 0.792995 -6.937903 -6.731537
Spine -5.078172 -1.707259 7.692744
Head 9.117860 -8.569446 -5.253553
LeftShoulder -19.953306 13.236611 -13.941229
LeftArm 19.172871 -9.544410 -73.738239
LeftForeArm 14.869005 -0.000000 9.822520
LeftHand 0.285627 0.000000 -5.345238
LeftHandThumb1 -26.253704 0.000000 33.147579
RightShoulder -8.370769 10.244548 -8.064765
RightArm -38.812316 60.232725 13.237050
RightForeArm 35.228505 0.000000 60.705122
RightHand 12.991724 -0.000000 -2.648925
RightHandThumb1 -24.326973 -0.000000 -32.862282
LeftUpLeg 11.387970 14.736018 6.971497
LeftLeg -9.734216 -0.000000 0.000000
LeftFoot -17.059552 29.377215 -8.038130
LeftToeBase 22.848647 -0.000000 -0.000000
RightUpLeg 7.306195 -3.686014 4.445297
RightLeg -4.969488 -0.000000 0.000000
RightFoot -4.665135 -27.284496 4.645796
RightToeBase 13.356596 -0.000000 -0.000000
2726
root -5.128844 35.163676 -9.103715 0.773628 -6.945141 -6.732226
Spine -5.026556 -1.686871 7.671986
Head 9.061028 -8.582568 -5.235682
LeftShoulder -19.985715 13.229118 -13.951012
LeftArm 19.204051 -9.509638 -73.749707
LeftForeArm 14.856605 -0.000000 9.820530
LeftHand 0.274660 -0.000000 -5.333816
LeftHandThumb1 -26.253704 0.000000 33.147579
RightShoulder -8.261866 10.243021 -8.054463
RightArm -38.253213 59.786657 13.780269
RightForeArm 33.959610 -0.000000 59.914385
RightHand 12.735117 -0.000000 -2.411827
RightHandThumb1 -24.326973 -0.000000 -32.862282
LeftUpLeg 11.414161 14.749722 6.976075
LeftLeg -9.738788 -0.000000 0.000000
LeftFoot -17.058063 29.378483 -8.038355
LeftToeBase 22.820155 -0.000000 -0.000000
RightUpLeg 7.328136 -3.690580 4.440704
RightLeg -4.971005 -0.000000 0.000000
RightFoot -4.667771 -27.264042 4.662739
RightToeBase 13.343471 -0.000000 -0.000000
2727
root -5.127980 35.163427 -9.103032 0.767819 -6.951707 -6.732591
Spine -4.996061 -1.637875 7.648404
Head 9.020063 -8.623254 -5.225662
LeftShoulder -19.983759 13.254507 -13.956751
LeftArm 19.251731 -9.549894 -73.793401
LeftForeArm 14.919113 -0.000000 9.816240
LeftHand 0.299739 -0.000000 -5.391054
LeftHandThumb1 -26.253704 0.000000 33.147579
RightShoulder -8.176627 10.210876 -8.021877
RightArm -37.616617 59.261101 14.335342
RightForeArm 32.821248 0.000000 59.030216
RightHand 12.457253 0.000000 -2.341296
RightHandThumb1 -24.326973 -0.000000 -32.862282
LeftUpLeg 11.425598 14.749644 6.975391
LeftLeg -9.743973 -0.000000 0.000000
LeftFoot -17.050949 29.390933 -8.024655
LeftToeBase 22.817270 -0.000000 -0.000000
RightUpLeg 7.338752 -3.660631 4.441391
RightLeg -4.979109 -0.000000 0.000000
RightFoot -4.662914 -27.288222 4.659258
RightToeBase 13.390427 -0.000000 -0.000000
2728
root -5.127551 35.162975 -9.101918 0.754442 -6.941380 -6.726554
Spine -4.957798 -1.609249 7.606555
Head 8.961104 -8.672196 -5.210215
LeftShoulder -19.986437 13.270451 -13.952401
LeftArm 19.290649 -9.514319 -73.808515
LeftForeArm 14.949291 -0.000000 9.814668
LeftHand 0.263884 0.000000 -5.433158
LeftHandThumb1 -26.253704 0.000000 33.147579
RightShoulder -8.098767 10.210495 -7.988300
RightArm -36.994679 58.724031 14.900544
RightForeArm 31.719338 -0.000000 58.104831
RightHand 12.080368 -0.000000 -2.544770
RightHandThumb1 -24.326973 -0.000000 -32.862282
LeftUpLeg 11.435211 14.739491 6.970176
LeftLeg -9.741384 -0.000000 0.000000
LeftFoot -17.058875 29.398174 -8.033403
LeftToeBase 22.839608 -0.000000 -0.000000
RightUpLeg 7.357422 -3.662042 4.434339
RightLeg -4.989071 -0.000000 0.000000
RightFoot -4.664023 -27.309499 4.647462
RightToeBase 13.388550 -0.000000 -0.000000
2729
root -5.126341 35.162508 -9.100786 0.747842 -6.939905 -6.724493
Spine -4.934918 -1.571588 7.587960
Head 8.942197 -8.676839 -5.225441
LeftShoulder -19.979392 13.284938 -13.957854
LeftArm 19.308563 -9.484684 -73.816021
LeftForeArm 14.948052 -0.000000 9.819367
LeftHand 0.249761 -0.000000 -5.433566
LeftHandThumb1 -26.253704 0.000000 33.147579
RightShoulder -8.047291 10.114158 -7.985585
RightArm -36.322209 58.345266 15.549750
RightForeArm 30.567765 0.000000 57.157117
RightHand 11.712865 0.000000 -2.594177
RightHandThumb1 -24.326973 -0.000000 -32.862282
LeftUpLeg 11.446610 14.745994 6.968658
LeftLeg -9.747907 -0.000000 0.000000
LeftFoot -17.056337 29.393214 -8.022221
LeftToeBase 22.834589 -0.000000 -0.000000
RightUpLeg 7.373227 -3.637071 4.427099
RightLeg -5.001087 -0.000000 0.000000
RightFoot -4.655362 -27.305630 4.635657
RightToeBase 13.385252 -0.000000 -0.000000
2730
root -5.125765 35.162066 -9.098801 0.745410 -6.930467 -6.723511
Spine -4.917184 -1.521280 7.564573
Head 8.911444 -8.721190 -5.226373
LeftShoulder -19.952061 13.307832 -13.954178
LeftArm 19.327912 -9.468209 -73.833747
LeftForeArm 15.016496 -0.000000 9.814784
LeftHand 0.257910 -0.000000 -5.429932
LeftHandThumb1 -26.253704 0.000000 33.147579
RightShoulder -7.996415 10.073313 -7.967878
RightArm -35.757138 57.912470 16.034116
RightForeArm 29.709055 -0.000000 56.062927
RightHand 11.365980 -0.000000 -2.506008
RightHandThumb1 -24.326973 -0.000000 -32.862282
LeftUpLeg 11.455989 14.746379 6.968489
LeftLeg -9.761203 -0.000000 0.000000
LeftFoot -17.055803 29.388957 -8.025040
LeftToeBase 22.843522 -0.000000 -0.000000
RightUpLeg 7.383716 -3.637489 4.426022
RightLeg -5.012246 -0.000000 0.000000
RightFoot -4.662122 -27.316586 4.658873
RightToeBase 13.372373 -0.000000 -0.000000
2731
root -5.124474 35.162260 -9.098211 0.734585 -6.910406 -6.719369
Spine -4.883197 -1.546024 7.535190
Head 8.886927 -8.714359 -5.178839
LeftShoulder -19.984028 13.330084 -13.970989
LeftArm 19.363018 -9.439257 -73.844898
LeftForeArm 15.024415 -0.000000 9.824066
LeftHand 0.250407 -0.000000 -5.392340
LeftHandThumb1 -26.253704 0.000000 33.147579
RightShoulder -7.846356 10.169178 -7.971058
RightArm -35.340649 57.275932 16.436505
RightForeArm 29.060959 -0.000000 54.865268
RightHand 11.103634 -0.000000 -2.373411
RightHandThumb1 -24.326973 -0.000000 -32.862282
LeftUpLeg 11.456368 14.709453 6.961996
LeftLeg -9.747716 -0.000000 0.000000
LeftFoot -17.060566 29.402122 -8.030486
LeftToeBase 22.825922 -0.000000 -0.000000
RightUpLeg 7.398220 -3.641411 4.418751
RightLeg -5.015236 -0.000000 0.000000
RightFoot -4.662813 -27.320352 4.668575
RightToeBase 13.349800 -0.000000 -0.000000
